<mxfile host="app.diagrams.net" modified="2021-05-05T03:56:40.200Z" agent="5.0 (Windows NT 10.0; WOW64) AppleWebKit/537.36 (KHTML, like Gecko) Chrome/86.0.4240.198 Safari/537.36" etag="6QY3tZybebr8vNmZTXIx" version="14.6.6" type="github">
  <diagram id="Pe07SucLOEjMHbpLgqw-" name="第 1 页">
    <mxGraphModel dx="1422" dy="727" grid="0" gridSize="10" guides="1" tooltips="1" connect="1" arrows="1" fold="1" page="1" pageScale="1" pageWidth="827" pageHeight="1169" math="0" shadow="0">
      <root>
        <mxCell id="0" />
        <mxCell id="1" parent="0" />
        <mxCell id="mG2eDTo068TyKf2zQT3f-5" value="" style="rounded=0;whiteSpace=wrap;html=1;fillColor=#dae8fc;strokeColor=#6c8ebf;" vertex="1" parent="1">
          <mxGeometry x="200" y="170" width="310" height="260" as="geometry" />
        </mxCell>
        <mxCell id="mG2eDTo068TyKf2zQT3f-4" value="" style="edgeStyle=orthogonalEdgeStyle;rounded=0;orthogonalLoop=1;jettySize=auto;html=1;" edge="1" parent="1" source="mG2eDTo068TyKf2zQT3f-1" target="mG2eDTo068TyKf2zQT3f-3">
          <mxGeometry relative="1" as="geometry" />
        </mxCell>
        <mxCell id="mG2eDTo068TyKf2zQT3f-1" value="&lt;span class=&quot;pl-s1&quot; style=&quot;box-sizing: border-box ; color: rgb(36 , 41 , 46) ; font-family: , &amp;#34;consolas&amp;#34; , &amp;#34;liberation mono&amp;#34; , &amp;#34;menlo&amp;#34; , monospace ; background-color: rgb(255 , 255 , 255)&quot;&gt;os&lt;/span&gt;&lt;span style=&quot;color: rgb(36 , 41 , 46) ; font-family: , &amp;#34;consolas&amp;#34; , &amp;#34;liberation mono&amp;#34; , &amp;#34;menlo&amp;#34; , monospace ; background-color: rgb(255 , 255 , 255)&quot;&gt;.&lt;/span&gt;&lt;span class=&quot;pl-en&quot; style=&quot;box-sizing: border-box ; font-family: , &amp;#34;consolas&amp;#34; , &amp;#34;liberation mono&amp;#34; , &amp;#34;menlo&amp;#34; , monospace ; background-color: rgb(255 , 255 , 255)&quot;&gt;Create&lt;/span&gt;&lt;span style=&quot;color: rgb(36 , 41 , 46) ; font-family: , &amp;#34;consolas&amp;#34; , &amp;#34;liberation mono&amp;#34; , &amp;#34;menlo&amp;#34; , monospace ; background-color: rgb(255 , 255 , 255)&quot;&gt;(&lt;/span&gt;&lt;span class=&quot;pl-s1&quot; style=&quot;box-sizing: border-box ; color: rgb(36 , 41 , 46) ; font-family: , &amp;#34;consolas&amp;#34; , &amp;#34;liberation mono&amp;#34; , &amp;#34;menlo&amp;#34; , monospace ; background-color: rgb(255 , 255 , 255)&quot;&gt;fileName&lt;/span&gt;&lt;span style=&quot;color: rgb(36 , 41 , 46) ; font-family: , &amp;#34;consolas&amp;#34; , &amp;#34;liberation mono&amp;#34; , &amp;#34;menlo&amp;#34; , monospace ; background-color: rgb(255 , 255 , 255)&quot;&gt;)&lt;/span&gt;" style="rounded=1;whiteSpace=wrap;html=1;" vertex="1" parent="1">
          <mxGeometry x="250" y="200" width="200" height="40" as="geometry" />
        </mxCell>
        <mxCell id="mG2eDTo068TyKf2zQT3f-2" value="fileserver.conf&lt;br&gt;IP/PORT/URL" style="shape=document;whiteSpace=wrap;html=1;boundedLbl=1;fillColor=#ffe6cc;strokeColor=#d79b00;" vertex="1" parent="1">
          <mxGeometry x="210" y="40" width="120" height="80" as="geometry" />
        </mxCell>
        <mxCell id="mG2eDTo068TyKf2zQT3f-3" value="&lt;span style=&quot;color: rgb(36 , 41 , 46) ; font-family: , &amp;#34;consolas&amp;#34; , &amp;#34;liberation mono&amp;#34; , &amp;#34;menlo&amp;#34; , monospace ; background-color: rgb(255 , 255 , 255)&quot;&gt; &lt;/span&gt;&lt;span class=&quot;pl-s1&quot; style=&quot;box-sizing: border-box ; color: rgb(36 , 41 , 46) ; font-family: , &amp;#34;consolas&amp;#34; , &amp;#34;liberation mono&amp;#34; , &amp;#34;menlo&amp;#34; , monospace ; background-color: rgb(255 , 255 , 255)&quot;&gt;part&lt;/span&gt;&lt;span style=&quot;color: rgb(36 , 41 , 46) ; font-family: , &amp;#34;consolas&amp;#34; , &amp;#34;liberation mono&amp;#34; , &amp;#34;menlo&amp;#34; , monospace ; background-color: rgb(255 , 255 , 255)&quot;&gt;.&lt;/span&gt;&lt;span class=&quot;pl-en&quot; style=&quot;box-sizing: border-box ; font-family: , &amp;#34;consolas&amp;#34; , &amp;#34;liberation mono&amp;#34; , &amp;#34;menlo&amp;#34; , monospace ; background-color: rgb(255 , 255 , 255)&quot;&gt;Read&lt;/span&gt;&lt;span style=&quot;color: rgb(36 , 41 , 46) ; font-family: , &amp;#34;consolas&amp;#34; , &amp;#34;liberation mono&amp;#34; , &amp;#34;menlo&amp;#34; , monospace ; background-color: rgb(255 , 255 , 255)&quot;&gt;(&lt;/span&gt;&lt;span class=&quot;pl-s1&quot; style=&quot;box-sizing: border-box ; color: rgb(36 , 41 , 46) ; font-family: , &amp;#34;consolas&amp;#34; , &amp;#34;liberation mono&amp;#34; , &amp;#34;menlo&amp;#34; , monospace ; background-color: rgb(255 , 255 , 255)&quot;&gt;buffer&lt;/span&gt;&lt;span style=&quot;color: rgb(36 , 41 , 46) ; font-family: , &amp;#34;consolas&amp;#34; , &amp;#34;liberation mono&amp;#34; , &amp;#34;menlo&amp;#34; , monospace ; background-color: rgb(255 , 255 , 255)&quot;&gt;)&lt;/span&gt;" style="whiteSpace=wrap;html=1;rounded=1;" vertex="1" parent="1">
          <mxGeometry x="290" y="310" width="120" height="60" as="geometry" />
        </mxCell>
        <mxCell id="mG2eDTo068TyKf2zQT3f-6" value="&lt;span style=&quot;color: rgb(111 , 66 , 193) ; font-family: , &amp;#34;consolas&amp;#34; , &amp;#34;liberation mono&amp;#34; , &amp;#34;menlo&amp;#34; , monospace ; background-color: rgb(255 , 234 , 127)&quot;&gt;serveHTTPUploadPOSTDrain&lt;/span&gt;" style="text;html=1;align=center;verticalAlign=middle;resizable=0;points=[];autosize=1;strokeColor=none;" vertex="1" parent="1">
          <mxGeometry x="190" y="150" width="180" height="20" as="geometry" />
        </mxCell>
        <mxCell id="mG2eDTo068TyKf2zQT3f-8" style="edgeStyle=orthogonalEdgeStyle;rounded=0;orthogonalLoop=1;jettySize=auto;html=1;entryX=0;entryY=0.25;entryDx=0;entryDy=0;" edge="1" parent="1" source="mG2eDTo068TyKf2zQT3f-7" target="mG2eDTo068TyKf2zQT3f-5">
          <mxGeometry relative="1" as="geometry" />
        </mxCell>
        <mxCell id="mG2eDTo068TyKf2zQT3f-7" value="&lt;span style=&quot;color: rgb(111 , 66 , 193) ; font-family: , &amp;#34;consolas&amp;#34; , &amp;#34;liberation mono&amp;#34; , &amp;#34;menlo&amp;#34; , monospace ; background-color: rgb(255 , 255 , 255)&quot;&gt;makeHttpServer&lt;/span&gt;" style="rounded=1;whiteSpace=wrap;html=1;" vertex="1" parent="1">
          <mxGeometry x="80" y="60" width="120" height="60" as="geometry" />
        </mxCell>
      </root>
    </mxGraphModel>
  </diagram>
</mxfile>
